<?xml version="1.0" standalone="no"?>
<!DOCTYPE svg PUBLIC "-//W3C//DTD SVG 20010904//EN"
 "http://www.w3.org/TR/2001/REC-SVG-20010904/DTD/svg10.dtd">
<svg version="1.0" xmlns="http://www.w3.org/2000/svg"
 width="400.000000pt" height="400.000000pt" viewBox="0 0 400.000000 400.000000"
 preserveAspectRatio="xMidYMid meet">

<g transform="translate(0.000000,400.000000) scale(0.100000,-0.100000)"
fill="#000000" stroke="none">
<path d="M1645 3650 l-350 -350 700 0 700 0 -350 350 c-192 193 -350 350 -350
350 0 0 -158 -157 -350 -350z"/>
<path d="M487 2492 l-487 -487 404 -404 c371 -371 406 -403 423 -390 65 52
2073 1727 2093 1745 l25 24 -985 0 -985 0 -488 -488z"/>
<path d="M2122 1912 l-1063 -887 993 -3 993 -2 477 477 c263 263 478 482 478
488 0 10 -801 815 -810 815 -3 0 -483 -400 -1068 -888z"/>
<path d="M1655 350 c192 -192 354 -350 360 -350 6 0 168 158 360 350 l350 350
-710 0 -710 0 350 -350z"/>
</g>
</svg>
